<svg width="237" height="238" viewBox="0 0 237 238" fill="none" xmlns="http://www.w3.org/2000/svg">
<path d="M91.8568 207.366C97.7659 205.593 101.119 199.366 99.346 193.457C97.573 187.548 91.3456 184.195 85.4365 185.968L91.8568 207.366ZM22.5308 156.33C16.5458 154.833 10.4808 158.472 8.98438 164.457C7.48795 170.442 11.1267 176.507 17.1117 178.004L22.5308 156.33ZM157.471 226.166V237.337C163.641 237.337 168.642 232.335 168.642 226.166H157.471ZM157.471 188.111L146.335 187.235C146.312 187.527 146.301 187.819 146.301 188.111H157.471ZM148.229 162.446L146.992 151.344C142.756 151.816 139.158 154.658 137.717 158.669C136.276 162.679 137.242 167.161 140.208 170.221L148.229 162.446ZM211.549 93.6127H222.719V93.6107L211.549 93.6127ZM196.8 56.7377L186.335 52.8325C184.84 56.8372 185.762 61.3436 188.709 64.4396L196.8 56.7377ZM195.915 19.6661L206.183 15.2659C204.875 12.2134 202.276 9.90128 199.092 8.95681L195.915 19.6661ZM157.471 34.2194L154.549 45.0009C157.671 45.8469 161.005 45.2986 163.692 43.4978L157.471 34.2194ZM88.6461 34.2194L82.4258 43.4978C85.1121 45.2986 88.447 45.8469 91.5685 45.0009L88.6461 34.2194ZM50.2023 19.6661L47.0254 8.95681C43.8416 9.90128 41.2431 12.2134 39.9349 15.2659L50.2023 19.6661ZM49.3174 56.7377L57.4081 64.4397C60.3553 61.3437 61.2774 56.8373 59.783 52.8325L49.3174 56.7377ZM34.5691 93.9077H45.7396C45.7396 93.8879 45.7395 93.8681 45.7394 93.8483L34.5691 93.9077ZM97.8884 162.741L105.916 170.509C108.861 167.465 109.831 163.019 108.423 159.025C107.014 155.031 103.468 152.178 99.2654 151.656L97.8884 162.741ZM88.6461 188.111H99.8166C99.8166 187.85 99.8075 187.588 99.7891 187.327L88.6461 188.111ZM88.6461 226.166H77.4756C77.4756 232.335 82.4768 237.337 88.6461 237.337V226.166ZM85.4365 185.968C74.4165 189.274 67.2545 189.216 62.4641 188.095C57.8175 187.007 54.3567 184.679 51.072 181.394C49.3667 179.688 47.7537 177.769 46.0075 175.582C44.3991 173.567 42.3787 170.932 40.4618 168.681C36.5785 164.122 30.9756 158.441 22.5308 156.33L17.1117 178.004C18.4992 178.351 20.2704 179.43 23.454 183.168C25.0706 185.066 26.5068 186.963 28.547 189.519C30.4495 191.903 32.6772 194.593 35.2736 197.19C40.5919 202.509 47.5779 207.555 57.3724 209.848C67.023 212.107 78.2963 211.435 91.8568 207.366L85.4365 185.968ZM168.642 226.166V188.111H146.301V226.166H168.642ZM168.608 188.987C169.605 176.305 165.104 163.805 156.25 154.671L140.208 170.221C144.598 174.749 146.83 180.947 146.335 187.235L168.608 188.987ZM149.467 173.548C165.531 171.757 184.099 167.664 198.656 155.422C213.756 142.723 222.719 122.873 222.719 93.6127H200.378C200.378 118.042 193.118 130.888 184.277 138.323C174.892 146.215 161.8 149.693 146.992 151.344L149.467 173.548ZM222.719 93.6107C222.716 77.0151 216.333 61.0558 204.891 49.0359L188.709 64.4396C196.198 72.3065 200.376 82.7522 200.378 93.6148L222.719 93.6107ZM207.266 60.643C212.752 45.9406 212.364 29.6897 206.183 15.2659L185.648 24.0662C189.567 33.21 189.813 43.5121 186.335 52.8325L207.266 60.643ZM195.915 19.6661C199.092 8.95681 199.081 8.95362 199.071 8.95042C199.067 8.94933 199.056 8.94613 199.049 8.94398C199.034 8.93967 199.019 8.93535 199.004 8.93099C198.974 8.92229 198.943 8.9135 198.911 8.90463C198.847 8.88688 198.781 8.86883 198.711 8.85057C198.571 8.81404 198.42 8.77671 198.255 8.73939C197.927 8.6647 197.55 8.59022 197.124 8.52225C196.27 8.38611 195.227 8.27723 193.99 8.24319C191.511 8.17495 188.305 8.40876 184.338 9.28965C176.423 11.047 165.537 15.3635 151.251 24.941L163.692 43.4978C176.248 35.0803 184.584 32.1201 189.18 31.0995C191.469 30.5915 192.841 30.561 193.376 30.5757C193.646 30.5832 193.719 30.6026 193.605 30.5844C193.548 30.5754 193.447 30.5573 193.301 30.5242C193.229 30.5077 193.146 30.4875 193.052 30.4629C193.005 30.4506 192.955 30.4372 192.903 30.4226C192.877 30.4153 192.85 30.4078 192.823 30.3999C192.809 30.3959 192.795 30.3919 192.781 30.3878C192.774 30.3858 192.763 30.3826 192.76 30.3816C192.749 30.3785 192.738 30.3753 195.915 19.6661ZM160.394 23.4379C135.945 16.811 110.173 16.811 85.7238 23.4379L91.5685 45.0009C112.19 39.4113 133.928 39.4113 154.549 45.0009L160.394 23.4379ZM94.8664 24.941C80.5803 15.3635 69.6946 11.047 61.7797 9.28965C57.8123 8.40876 54.6064 8.17495 52.1271 8.24319C50.8905 8.27723 49.8473 8.38611 48.9938 8.52225C48.5676 8.59022 48.1905 8.6647 47.8621 8.73939C47.698 8.77671 47.5462 8.81404 47.4067 8.85057C47.337 8.86883 47.2703 8.88688 47.2068 8.90463C47.175 8.9135 47.144 8.92229 47.1138 8.93099C47.0987 8.93535 47.0837 8.93967 47.069 8.94398C47.0617 8.94613 47.0508 8.94933 47.0471 8.95041C47.0362 8.95362 47.0254 8.95681 50.2023 19.6661C53.3791 30.3753 53.3684 30.3785 53.3577 30.3816C53.3542 30.3826 53.3436 30.3858 53.3366 30.3878C53.3226 30.3919 53.3087 30.3959 53.295 30.3999C53.2676 30.4078 53.2409 30.4153 53.2148 30.4226C53.1626 30.4372 53.113 30.4506 53.066 30.4629C52.9721 30.4875 52.8887 30.5077 52.8161 30.5242C52.6708 30.5573 52.5692 30.5754 52.5127 30.5844C52.3985 30.6026 52.4714 30.5832 52.7418 30.5757C53.2767 30.561 54.649 30.5915 56.9373 31.0995C61.5339 32.1201 69.8701 35.0803 82.4258 43.4978L94.8664 24.941ZM39.9349 15.2659C33.7534 29.6897 33.3655 45.9406 38.8518 60.643L59.783 52.8325C56.3051 43.5121 56.551 33.21 60.4696 24.0662L39.9349 15.2659ZM41.2267 49.0357C29.6993 61.1448 23.3099 77.2484 23.3987 93.9671L45.7394 93.8483C45.6813 82.9052 49.8635 72.3651 57.4081 64.4397L41.2267 49.0357ZM23.3986 93.9077C23.3986 123.007 32.3841 142.742 47.4617 155.422C61.9794 167.63 80.5028 171.838 96.5114 173.826L99.2654 151.656C84.4009 149.809 71.2647 146.248 61.8409 138.323C52.9772 130.869 45.7396 118.105 45.7396 93.9077H23.3986ZM89.8608 154.973C81.1133 164.014 76.6207 176.346 77.5032 188.895L99.7891 187.327C99.3515 181.105 101.579 174.991 105.916 170.509L89.8608 154.973ZM77.4756 188.111V226.166H99.8166V188.111H77.4756ZM157.471 214.996H88.6461V237.337H157.471V214.996Z" fill="#D14127"/>
</svg>
