<svg width="287" height="274" viewBox="0 0 287 274" fill="none" xmlns="http://www.w3.org/2000/svg">
<mask id="path-1-inside-1" fill="white">
<path d="M18.7829 121.103C13.354 117.351 5.89477 118.763 2.1431 124.193C-1.60858 129.623 -0.196185 137.083 5.23271 140.791C10.6616 144.543 18.1208 143.131 21.8725 137.701C25.6242 132.271 24.2118 124.855 18.7829 121.103Z"/>
</mask>
<path d="M18.7829 121.103C13.354 117.351 5.89477 118.763 2.1431 124.193C-1.60858 129.623 -0.196185 137.083 5.23271 140.791C10.6616 144.543 18.1208 143.131 21.8725 137.701C25.6242 132.271 24.2118 124.855 18.7829 121.103Z" stroke="#D14127" stroke-width="10" mask="url(#path-1-inside-1)"/>
<mask id="path-2-inside-2" fill="white">
<path d="M47.5163 217.072C44.5149 217.734 42.617 220.692 43.2791 223.694C43.9412 226.695 46.8984 228.593 49.8997 227.975C52.901 227.313 54.799 224.356 54.181 221.354C53.4748 218.352 50.5176 216.454 47.5163 217.072Z"/>
</mask>
<path d="M47.5163 217.072C44.5149 217.734 42.617 220.692 43.2791 223.694C43.9412 226.695 46.8984 228.593 49.8997 227.975C52.901 227.313 54.799 224.356 54.181 221.354C53.4748 218.352 50.5176 216.454 47.5163 217.072Z" stroke="#D14127" stroke-width="20" mask="url(#path-2-inside-2)"/>
<mask id="path-3-inside-3" fill="white">
<path d="M62.7437 60.6699C66.8484 57.8006 67.9077 52.1502 65.0388 48.0448C62.1699 43.9394 56.5203 42.8799 52.4155 45.7493C48.3108 48.6186 47.2515 54.2691 50.1204 58.3745C52.9452 62.4798 58.5948 63.4951 62.7437 60.6699Z"/>
</mask>
<path d="M62.7437 60.6699C66.8484 57.8006 67.9077 52.1502 65.0388 48.0448C62.1699 43.9394 56.5203 42.8799 52.4155 45.7493C48.3108 48.6186 47.2515 54.2691 50.1204 58.3745C52.9452 62.4798 58.5948 63.4951 62.7437 60.6699Z" stroke="#D14127" stroke-width="10" mask="url(#path-3-inside-3)"/>
<mask id="path-4-inside-4" fill="white">
<path d="M84.9006 12.5531C88.3433 11.8027 90.5061 8.44772 89.7557 5.0045C89.0054 1.56127 85.6509 -0.601781 82.2082 0.148665C78.7655 0.899112 76.6028 4.25405 77.3531 7.69728C78.1034 11.0964 81.502 13.2594 84.9006 12.5531Z"/>
</mask>
<path d="M84.9006 12.5531C88.3433 11.8027 90.5061 8.44772 89.7557 5.0045C89.0054 1.56127 85.6509 -0.601781 82.2082 0.148665C78.7655 0.899112 76.6028 4.25405 77.3531 7.69728C78.1034 11.0964 81.502 13.2594 84.9006 12.5531Z" stroke="#D14127" stroke-width="22" mask="url(#path-4-inside-4)"/>
<mask id="path-5-inside-5" fill="white">
<path d="M166.731 29.6369C172.337 26.2819 174.146 18.9982 170.792 13.3919C167.438 7.78562 160.155 5.97571 154.505 9.33065C148.9 12.6856 147.09 19.9693 150.445 25.5756C153.843 31.1819 161.126 33.0359 166.731 29.6369Z"/>
</mask>
<path d="M166.731 29.6369C172.337 26.2819 174.146 18.9982 170.792 13.3919C167.438 7.78562 160.155 5.97571 154.505 9.33065C148.9 12.6856 147.09 19.9693 150.445 25.5756C153.843 31.1819 161.126 33.0359 166.731 29.6369Z" stroke="#D14127" stroke-width="10" mask="url(#path-5-inside-5)"/>
<mask id="path-6-inside-6" fill="white">
<path d="M132.039 259.583C128.508 262.01 127.67 266.822 130.053 270.31C132.481 273.797 137.292 274.68 140.779 272.296C144.31 269.868 145.148 265.056 142.765 261.569C140.381 258.038 135.57 257.155 132.039 259.583Z"/>
</mask>
<path d="M132.039 259.583C128.508 262.01 127.67 266.822 130.053 270.31C132.481 273.797 137.292 274.68 140.779 272.296C144.31 269.868 145.148 265.056 142.765 261.569C140.381 258.038 135.57 257.155 132.039 259.583Z" stroke="#D14127" stroke-width="8" mask="url(#path-6-inside-6)"/>
<mask id="path-7-inside-7" fill="white">
<path d="M243.045 74.2663C238.455 77.4446 237.307 83.7131 240.485 88.304C243.663 92.895 249.93 94.0428 254.521 90.8644C259.111 87.686 260.258 81.4176 257.081 76.8266C253.947 72.2357 247.635 71.0879 243.045 74.2663Z"/>
</mask>
<path d="M243.045 74.2663C238.455 77.4446 237.307 83.7131 240.485 88.304C243.663 92.895 249.93 94.0428 254.521 90.8644C259.111 87.686 260.258 81.4176 257.081 76.8266C253.947 72.2357 247.635 71.0879 243.045 74.2663Z" stroke="#D14127" stroke-width="8" mask="url(#path-7-inside-7)"/>
<mask id="path-8-inside-8" fill="white">
<path d="M286.829 113.775C286.167 110.773 283.21 108.831 280.208 109.493C277.207 110.155 275.265 113.113 275.927 116.115C276.589 119.117 279.546 121.059 282.592 120.397C285.549 119.735 287.491 116.777 286.829 113.775Z"/>
</mask>
<path d="M286.829 113.775C286.167 110.773 283.21 108.831 280.208 109.493C277.207 110.155 275.265 113.113 275.927 116.115C276.589 119.117 279.546 121.059 282.592 120.397C285.549 119.735 287.491 116.777 286.829 113.775Z" stroke="#D14127" stroke-width="20" mask="url(#path-8-inside-8)"/>
<mask id="path-9-inside-9" fill="white">
<path d="M265.158 144.235C261.097 145.117 258.537 149.09 259.42 153.152C260.303 157.213 264.275 159.773 268.336 158.934C272.396 158.052 274.956 154.079 274.074 150.017C273.235 145.912 269.218 143.352 265.158 144.235Z"/>
</mask>
<path d="M265.158 144.235C261.097 145.117 258.537 149.09 259.42 153.152C260.303 157.213 264.275 159.773 268.336 158.934C272.396 158.052 274.956 154.079 274.074 150.017C273.235 145.912 269.218 143.352 265.158 144.235Z" stroke="#D14127" stroke-width="28" mask="url(#path-9-inside-9)"/>
<mask id="path-10-inside-10" fill="white">
<path d="M244.722 109.317C240.75 103.666 235.1 99.958 228.965 98.1481C229.848 86.4058 226.935 74.2663 219.696 63.8041C205.616 43.4097 179.884 35.9052 157.639 43.9835C137.733 31.2259 111.427 30.6962 90.7709 44.9547C80.3103 52.1943 72.8511 62.1267 68.658 73.1627C62.5671 74.0014 56.5644 76.032 51.1796 79.7401C33.3481 92.0563 28.6254 116.071 39.9687 134.302C24.6089 148.384 21.078 171.78 32.7302 189.879C39.6598 200.606 50.5176 207.051 62.214 208.993C62.4347 217.734 65.0388 226.519 70.4235 234.288C85.033 255.477 114.075 260.774 135.261 246.119C136.056 245.545 136.674 244.838 137.468 244.264C149.253 254.815 166.996 256.537 180.59 247.134C187.829 242.146 192.463 234.818 194.494 226.916C205.131 227.313 215.944 224.62 225.39 218.087C247.988 202.46 254.079 171.913 239.602 148.869C251.166 139.07 253.638 121.942 244.722 109.317ZM170.042 194.249C160.111 189.394 154.064 178.225 156.624 167.233C158.566 159.023 176.927 125.429 177.633 120.264C178.339 115.011 175.515 114.526 173.749 114.481C171.498 114.349 169.688 115.453 167.482 118.807C165.451 121.853 142.588 167.631 140.602 171.383C137.071 178.093 132.569 179.682 128.111 179.461C121.579 179.108 118.577 175.621 119.504 169.308C120.078 165.6 134.555 132.845 135.305 127.725C135.747 124.546 135.129 121.191 131.995 119.602C128.861 118.013 125.154 120.441 124.05 122.339C122.506 124.899 101.982 178.622 99.7749 182.595C95.9791 189.482 92.0067 191.689 86.004 191.954C71.8359 192.616 61.3312 180.962 65.9657 166.659C68.0401 160.303 81.6786 112.009 88.6081 99.6932C93.2425 91.4382 106.175 85.1698 115.135 89.0103C119.769 90.9968 126.213 94.2193 128.111 95.058C132.481 97.0004 137.159 91.7472 139.013 90.1139C140.867 88.5247 142.632 86.8031 144.883 85.832C147.134 84.8608 150.665 84.4635 153.402 84.8608C156.138 85.2581 157.771 86.2734 158.787 87.1121C160.817 88.7013 162.053 89.9815 163.951 91.7914C166.82 94.5283 168.85 92.8508 170.306 92.0121C172.778 90.5554 174.72 89.4076 182.091 89.5401C189.683 89.6725 198.378 92.3653 200.187 105.299C202.218 119.646 176.706 156.595 178.516 173.723C179.796 185.818 200.187 177.298 201.909 188.334C204.16 202.681 176.397 197.34 170.042 194.249Z"/>
</mask>
<path d="M244.722 109.317C240.75 103.666 235.1 99.958 228.965 98.1481C229.848 86.4058 226.935 74.2663 219.696 63.8041C205.616 43.4097 179.884 35.9052 157.639 43.9835C137.733 31.2259 111.427 30.6962 90.7709 44.9547C80.3103 52.1943 72.8511 62.1267 68.658 73.1627C62.5671 74.0014 56.5644 76.032 51.1796 79.7401C33.3481 92.0563 28.6254 116.071 39.9687 134.302C24.6089 148.384 21.078 171.78 32.7302 189.879C39.6598 200.606 50.5176 207.051 62.214 208.993C62.4347 217.734 65.0388 226.519 70.4235 234.288C85.033 255.477 114.075 260.774 135.261 246.119C136.056 245.545 136.674 244.838 137.468 244.264C149.253 254.815 166.996 256.537 180.59 247.134C187.829 242.146 192.463 234.818 194.494 226.916C205.131 227.313 215.944 224.62 225.39 218.087C247.988 202.46 254.079 171.913 239.602 148.869C251.166 139.07 253.638 121.942 244.722 109.317ZM170.042 194.249C160.111 189.394 154.064 178.225 156.624 167.233C158.566 159.023 176.927 125.429 177.633 120.264C178.339 115.011 175.515 114.526 173.749 114.481C171.498 114.349 169.688 115.453 167.482 118.807C165.451 121.853 142.588 167.631 140.602 171.383C137.071 178.093 132.569 179.682 128.111 179.461C121.579 179.108 118.577 175.621 119.504 169.308C120.078 165.6 134.555 132.845 135.305 127.725C135.747 124.546 135.129 121.191 131.995 119.602C128.861 118.013 125.154 120.441 124.05 122.339C122.506 124.899 101.982 178.622 99.7749 182.595C95.9791 189.482 92.0067 191.689 86.004 191.954C71.8359 192.616 61.3312 180.962 65.9657 166.659C68.0401 160.303 81.6786 112.009 88.6081 99.6932C93.2425 91.4382 106.175 85.1698 115.135 89.0103C119.769 90.9968 126.213 94.2193 128.111 95.058C132.481 97.0004 137.159 91.7472 139.013 90.1139C140.867 88.5247 142.632 86.8031 144.883 85.832C147.134 84.8608 150.665 84.4635 153.402 84.8608C156.138 85.2581 157.771 86.2734 158.787 87.1121C160.817 88.7013 162.053 89.9815 163.951 91.7914C166.82 94.5283 168.85 92.8508 170.306 92.0121C172.778 90.5554 174.72 89.4076 182.091 89.5401C189.683 89.6725 198.378 92.3653 200.187 105.299C202.218 119.646 176.706 156.595 178.516 173.723C179.796 185.818 200.187 177.298 201.909 188.334C204.16 202.681 176.397 197.34 170.042 194.249Z" stroke="#D14127" stroke-width="22" mask="url(#path-10-inside-10)"/>
<mask id="path-11-inside-11" fill="white">
<path d="M205.131 237.731C199.437 241.66 198.025 249.474 201.953 255.124C205.881 260.819 213.693 262.231 219.387 258.302C225.081 254.374 226.493 246.56 222.565 240.91C218.637 235.215 210.825 233.803 205.131 237.731Z"/>
</mask>
<path d="M205.131 237.731C199.437 241.66 198.025 249.474 201.953 255.124C205.881 260.819 213.693 262.231 219.387 258.302C225.081 254.374 226.493 246.56 222.565 240.91C218.637 235.215 210.825 233.803 205.131 237.731Z" stroke="#D14127" stroke-width="10" mask="url(#path-11-inside-11)"/>
</svg>
